/* XPM */
static char *f28a8df9693348828a2b3d6e0197fcb3fgfD4MNUsbRPNEtY[] = {
/* columns rows colors chars-per-pixel */
"64 64 12 1 ",
"  c None",
". c #990030",
"X c #ED1C24",
"o c #D6222B",
"O c #C92A32",
"+ c #EB444C",
"@ c #E66567",
"# c #47912C",
"$ c #59B53A",
"% c #79D15E",
"& c #F5E49C",
"* c #FFF9BD",
/* pixels */
"                                                                ",
"                                                                ",
"                                                                ",
"                                     **    *                    ",
"                                     **     @@ *                ",
"                                      @@     @  @               ",
"                                       @   * @  @@   *          ",
"                                       @@  @@@@*  @  @          ",
"                 **                     @@  @ @@  @  @          ",
"                 **                 X    XX @  @ @   @          ",
"                  @                 XXX   +X@ @@@@   @ *        ",
"            *    @                  &++   X+X @**   @@  @       ",
"                 @                   X+X  X+X@@**  @@   @       ",
"            @    @                OO XX+  +XX@  @ @@   @@       ",
"            @ *  @             +X OOO X+  +XX  @@@@   @@        ",
"            @    @     X   +X  X+ &OOOXX  +XX@@@   @@@@         ",
"             @ @  @  XXX   +&  X+X  OOXX +XXX@XXX@@@            ",
"         *   @ @  @ X++    +X   ++  OXXX XooXXXXXXXX            ",
"         @@  @ @   @X+X    +X   X+X OX.XXooX..XXXXXXXX          ",
"         @    @@   X++   O +XX  X+X Xo.XXX...     XXXX          ",
"         @ *  @@   X+X  OO +XX  XXXXXo.X......XXX   XX          ",
"         @  @  @@  XXX  OO XXXX XXXXXo.....XXXXXXXX  X          ",
"         @@ @@ @@@ XXX  OO XXXX XXXX...XXX.XXXXX++XX            ",
"          @  @  @@@@XXX OOOXXXX.XX.....XX ...X  X++XX           ",
"           @ @@  @@@@@XXOOOXXXX....oXX.X   XX.X   ++X           ",
"           @@  @@   XXX.XXXXXX...ooXXXX.XX  XX.X   ++X          ",
"        *   @@ *@@     X......XXX..XXXX.X+XX XXX   X+X          ",
"         @@@ @@@* @@@@XXX..XXX....X XX##.X+X  XX   XXX          ",
"            @@ @@@@@@XXXXXXXX.XX.X X+X#$  ++X XX    X           ",
"              @@@@@XXXXX XXX. XX.X X+XX$% XXX  X    X           ",
"                @@ X++X XXX.X XX.X X++X$%  XX                   ",
"        *@       @@X+X  X+X.  XXXX XX++X$% XX                   ",
"          @@@@ @@ X+XX  X+X.  XX+X   X+X$%  X                   ",
"             @@@ X++X   X+XX   XX+X   #XXX                      ",
"                 X+X    X+XX    XXXX  #$$X                      ",
"                 X+X    X+XX      XXXX $$%XX                    ",
"                 XXX     ++XX      XXX $$%%                     ",
"                 XXXX    X++X      XXXX $%%                     ",
"                  XXX      +XX          $$%                     ",
"                   XX       XX           $%                     ",
"                            XX           $$%                    ",
"                            XX            $%                    ",
"                            XX            $%%                   ",
"                                          $$%                   ",
"                                           $%%                  ",
"                                           $$%                  ",
"                                            $$%                 ",
"                                             $%                 ",
"                                             $%%                ",
"                                             $$%                ",
"                                              $%                ",
"                                              $$%               ",
"                                               $$%              ",
"                                                $$%             ",
"                                                 $%             ",
"                                                 $$%            ",
"                                                  $$%           ",
"                                                   $$%          ",
"                                                    $$%         ",
"                                                     $$%        ",
"                                                      $$%       ",
"                                                       $$       ",
"                                                                ",
"                                                                "
};
