/* XPM */
static char *_35184cde4d048b0cc21cad489498e3fWH25LsyzNUDOPdOE[] = {
/* columns rows colors chars-per-pixel */
"64 64 9 1 ",
"  c black",
". c #522716",
"X c #572915",
"o c #990030",
"O c #ED1C24",
"+ c #9C5A3C",
"@ c #FF7E00",
"# c #F5E49C",
"$ c white",
/* pixels */
"oooo                                                        oooo",
"oooo                                                        oooo",
"oooo##########$$$$####$$$$$$$$    $$$$$$$$####$$$$##########oooo",
"oooo##########$$$$#$$#$$$$$$$$    $$$$$$$$#$$#$$$$##########oooo",
"oooo##########$$$$#$$#$$$$$$$$    $$$$$$$$#$$#$$$$##########oooo",
"oooo##########$$$$#$$#$$$$$$$$    $$$$$$$$#$$#$$$$##########oooo",
"oooo##########$$$$#O@#$$$$$$$$    $$$$$$$$#@O#$$$$##########oooo",
"oooo##########$$$$#OO#$$$$$$$$    $$$$$$$$#OO#$$$$##########oooo",
"oooo##########$$$$####$$$$$$$$    $$$$$$$$####$$$$##########oooo",
"oooo##########$$$$####$$$$$$$$    $$$$$$$$####$$$$##########oooo",
"oooo                                                        oooo",
"oooo                                                        oooo",
"oooo                                                        oooo",
"oooo                                                        oooo",
"oooo$$    $$$ .................................... $$$    $$oooo",
"oooo$$    $$$ .++++++++++++++++++++++++++++++++++. $$$    $$oooo",
"oooo$$$$$$$$$ .++++++++++++++++++++++++++++++++++. $$$$$$$$$oooo",
"oooo$$$$$$$$$ .++++++++++++++++++++++++++++++++++. $$$$$$$$$oooo",
"oooo$$$$$$$$$ .+++++++$$$$$$$$$$+$$$$$$$$$$++++++. $$$$$$$$$oooo",
"oooo$$$$$$$$$ .+++++++$$$$$$$$$$+$$$$$$$$$$++++++. $$$$$$$$$oooo",
"oooo$$$$$$$$$ .+++++++$$$$$$$$$$+$$$$$$$$$$++++++. $$$$$$$$$oooo",
"oooo$$$$$$$$$ .++++++++++++++++++++++++++++++++++. $$$$$$$$$oooo",
"oooo$$$$$$$$$ .+++++++$$$$$$$$$$+$$$$$$$$$$++++++. $$$$$$$$$oooo",
"oooo$$$$$$$$$ .+++++++$$$$$$$$$$+$$$$$$$$$$++++++. $$$$$$$$$oooo",
"oooo$$$$$$$$$ .+++++++$$$$$$$$$$+$$$$$$$$$$++++++. $$$$$$$$$oooo",
"oooo$$$$$$$$$ .++++++++++++++++++++++++++++++++++. $$$$$$$$$oooo",
"oooo$$$$$$$$$ .+++++++$$$$$$$$$$+$$$$$$$$$$++++++. $$$$$$$$$oooo",
"oooo$$$$$$$$$ .+++++++$$$$$$$$$$+$$$$$$$$$$++++++. $$$$$$$$$oooo",
"oooo$$$$$$$$$ .+++++++$$$$$$$$$$+$$$$$$$$$$++++++. $$$$$$$$$oooo",
"oooo$$$$$$$$$ .++++++++++++++++++++++++++++++++++. $$$$$$$$$oooo",
"oooo$$$$$$$$$ .+++++++$$$$$$$$$$+$$$$$$$$$$++++++. $$$$$$$$$oooo",
"oooo$$$$$$$$$ .+++++++$$$$$$$$$$+$$$$$$$$$$++++++. $$$$$$$$$oooo",
"oooo          .+++++++$$$$$$$$$$+$$$$$$$$$$++++++.          oooo",
"oooo          .++++++++++++++++++++++++++++++++++.          oooo",
"oooo          .+++++++$$$$$$$$$$+$$$$$$$$$$++++++.          oooo",
"oooo          .+++++++$$$$$$$$$$+$$$$$$$$$$++++++.          oooo",
"oooo+ooooooooo.+++++++oooooooooo+oooooooooo++++++.ooooooooo+oooo",
"oooo+ooooooooo.+++++++oooooooooo+oooooooooo++++++.ooooooooo+oooo",
"oooo+ooooooooo.+++++++oooooooooo+oooooooooo++++++.ooooooooo+oooo",
"oooo+ooooooooo.+++++++oooooooooo+oooooooooo++++++.ooooooooo+oooo",
"oooo+ooooooooo.+++++++oooooooooo+oooooooooo++++++.ooooooooo+oooo",
"oooo+ooooooooo.+++++++oooooooooo+oooooooooo++++++.ooooooooo+oooo",
"oooo+ooooooooo.+++++++oooooooooo+oooooooooo++++++.ooooooooo+oooo",
"oooo+oo$$$$$oo.++++++++++++++++++++++++++++++++++.oo$$$$$oo+oooo",
"oooo+oo$$$$$oo.++++++++++++++++++++++++++++++++++.oo$$$$$oo+oooo",
"oooo+oo$$$$$oo.++++++++++++++++++++++++++++++++++.oo$$$$$oo+oooo",
"oooo+oo$$$$$oo.++++++++++++++++++++++++++++++++++.oo$$$$$oo+oooo",
"oooo+oo$$$$$oo.++++++++++++++++++++++++++++++++++.oo$$$$$oo+oooo",
"oooo+oo$$$$$oo....................................oo$$$$$oo+oooo",
"oooo+oo$$$$$oo...++.++.++.++.++.++.++.++.++.XXXXX.oo$$$$$oo+oooo",
"oooo+oo$$$$$oo..............................XXXX#.oo$$$$$oo+oooo",
"oooo+oo$$$$$oo...++.++.++.++.++.++.++.++.++.XXXXX.oo$$$$$oo+oooo",
"oooo+oo$$$$$oo...++.++.++.++.++.++.++.++.++.XXXXX.oo$$$$$oo+oooo",
"$$$$+oo$$$$$oo...++.++.++.++.++.++.++.++.++.XXXXX.oo$$$$$oo+$$$$",
"$$$$+oo$$$$$oo...++.++.++.++.++.++.++.++.++.XXXXX.oo$$$$$oo+$$$$",
"$$$$+oo$$$$$oo...++.++.++.++.++.++.++.++.++.XXXXX.oo$$$$$oo+$$$$",
"$$$$+oooooooooooooooooooooooooooooooooooooooooooooooooooooo+$$$$",
"oooooooooooooooooooooooooooooooooooooooooooooooooooooooooooooooo",
"oooooooooooooooooooooooooooooooooooooooooooooooooooooooooooooooo",
"oooooooooooooooooooooooooooooooooooooooooooooooooooooooooooooooo",
"++++++++++++++++++++++++++++++++++++++++++++++++++++++++++++++++",
"oooooooooooooooooooooooooooooooooooooooooooooooooooooooooooooooo",
"oooooooooooooooooooooooooooooooooooooooooooooooooooooooooooooooo",
"oooooooooooooooooooooooooooooooooooooooooooooooooooooooooooooooo"
};
