/* XPM */
static char *bd6d780619c741baa0eeec55d5f95512SuQfg08Y6g0jYiZe[] = {
/* columns rows colors chars-per-pixel */
"64 64 6 1 ",
"  c #23783B",
". c #22B14C",
"X c #A8E61D",
"o c #FFF200",
"O c #D3F9BC",
"+ c white",
/* pixels */
"                                                                ",
"                                                                ",
"                                                                ",
"               X                                       X        ",
"              XOX                              O      XOX       ",
"               X          O                 X X O      X        ",
"                          XO                 O X                ",
"                                                                ",
"                                                                ",
"                                                                ",
"          +++                                                   ",
"         X+o+                                                   ",
"         X+++                                            +++    ",
"          XX                      O                     X+o+    ",
"           X                     OXO          X   O    XX+++    ",
"                                  OXO        XOX XoO    XXX     ",
"                                 X O O        X   X      X      ",
"                       O          X O                    X      ",
"                  O O O           X XX                          ",
"                 X O X              X                           ",
"                   X                                            ",
"                                                                ",
"                                                                ",
"                +                                               ",
"               +++                                              ",
"      O       ++o++                                             ",
"     OoO       +++X                          O                  ",
"     XO        X+XX                         +o+                 ",
"      X         XX                          X+X                 ",
"                X                            X                  ",
"                                                                ",
"                                                                ",
"                                                    +           ",
"                                                   +X+          ",
"                                                   X+X          ",
"                                 O                  X           ",
"           O                    OoO                             ",
"          OoO                   XOX                             ",
"          XOX                    X                              ",
"          XX                                                    ",
"          X                                            X        ",
"                                                      XOX       ",
"                                                       XOX      ",
"                                                        X       ",
"                      +                X                        ",
"                     +o+              XOX                       ",
"     O.             XX+XX              X                        ",
"      O              XXX                                        ",
"                      X                                         ",
"                                                                ",
"                                                                ",
"                                           +                    ",
"                                          +o+                   ",
"                                          X+X                   ",
"        +                                 XX            X       ",
"       +o+                      O          X           XOX      ",
"       X+X                     OXO                    X X       ",
"        X                       X                    XOX        ",
"                                                      X         ",
"                                                                ",
"                                                                ",
"                                                                ",
"                                                                ",
"                                                                "
};
