/* XPM */
static char *b410c17a9e84430acd33af5f64ba9d2cw7w969bsj0KMioEA[] = {
/* columns rows colors chars-per-pixel */
"64 64 13 1 ",
"  c None",
". c black",
"X c #522716",
"o c #572915",
"O c #464646",
"+ c #990030",
"@ c #ED1C24",
"# c #9C5A3C",
"$ c #FF7E00",
"% c #22B14C",
"& c #FFF200",
"* c #F5E49C",
"= c white",
/* pixels */
"++++........................................................++++",
"++++........................................................++++",
"++++**********====****========....========****====**********++++",
"++++**********====*==*========....========*==*====**********++++",
"++++**********====*==*========....========*==*====**********++++",
"++++**********====*==*========....========*==*====**********++++",
"++++**********====*@$*========....========*$@*====**********++++",
"++++**********====*@@*========....========*@@*====**********++++",
"++++**********====****========....========****====**********++++",
"++++**********====****========....========****====**********++++",
"++++........................................................++++",
"++++........................................................++++",
"++++........................................................++++",
"++++........................................................++++",
"++++==....===.XXXXXXXXXXXX========================.===....==++++",
"++++==....===.############========================.===....==++++",
"++++=========.############=============%%=========.=========++++",
"++++=========.############=============%======%===.=========++++",
"++++=========.###=======##======%======%====%%====.=========++++",
"++++=========.###=======##======%%====@%&&%%======.=========++++",
"++++=========.###=======##========%%=&&%&&========.=========++++",
"++++=========.############========&&%&&%%@@%%=====.=========++++",
"++++=========.###=======##======%%&&%%@%%%%=======.=========++++",
"++++=========.###=======##===========%=%%%========.=========++++",
"++++=========.###=======##===========%%%%=========.=========++++",
"++++=========.############=============%%=========.=========++++",
"++++=========.###=======##==============%=========.=========++++",
"++++=========.###=======##============OOOOO=======.=========++++",
"++++=========.###=======##============OOOOO=======.=========++++",
"++++=========.############=============OOO========.=========++++",
"++++=========.###=======##============OOOOO=======.=========++++",
"++++=========.###=======##============OOOOO=======.=========++++",
"++++..........###=======##============OOOOO=======..........++++",
"++++..........############========####OOOOO####===..........++++",
"++++..........###=======##========#####OOO#####===..........++++",
"++++..........###=======##========#############===..........++++",
"++++#+++++++++###+++++++##========.............===+++++++++#++++",
"++++#+++++++++###+++++++##========#############===+++++++++#++++",
"++++#+++++++++###+++++++##========#############===+++++++++#++++",
"++++#+++++++++###+++++++##========#...........#===+++++++++#++++",
"++++#+++++++++###+++++++##========#...........#===+++++++++#++++",
"++++#+++++++++###+++++++##========#...........#===+++++++++#++++",
"++++#+++++++++###+++++++##========#############===+++++++++#++++",
"++++#++=====++############========================++=====++#++++",
"++++#++=====++############========================++=====++#++++",
"++++#++=====++############========================++=====++#++++",
"++++#++=====++############===================== ==++=====++#++++",
"++++#++=====++############========================++=====++#++++",
"++++#++=====++XXXXXXXXXXXX========================++=====++#++++",
"++++#++=====++X#########oo========================++=====++#++++",
"++++#++=====++XXXXXXXXXXo#========================++=====++#++++",
"++++#++=====++X#########oo========================++=====++#++++",
"++++#++=====++X#########oo========================++=====++#++++",
"====#++=====++X#########oo========================++=====++#====",
"====#++=====++X#########oo========================++=====++#====",
"====#++=====++X#########oo========================++=====++#====",
"====#++++++++++++++++++++++++++++++++++++++++++++++++++++++#====",
"++++++++++++++++++++++++++++++++++++++++++++++++++++++++++++++++",
"++++++++++++++++++++++++++++++++++++++++++++++++++++++++++++++++",
"++++++++++++++++++++++++++++++++++++++++++++++++++++++++++++++++",
"################################################################",
"++++++++++++++++++++++++++++++++++++++++++++++++++++++++++++++++",
"++++++++++++++++++++++++++++++++++++++++++++++++++++++++++++++++",
"++++++++++++++++++++++++++++++++++++++++++++++++++++++++++++++++"
};
