/* XPM */
static char *_af0abc2aba546cdc4a613f775f6cd0do5KGV2AXf8VNmPmA[] = {
/* columns rows colors chars-per-pixel */
"64 64 5 1 ",
"  c None",
". c black",
"X c #464646",
"o c #6F3198",
"O c white",
/* pixels */
"                                                                ",
"                                                                ",
"                                                                ",
"                                                                ",
"                            ...........                         ",
"                         .................                      ",
"                      .......................                   ",
"                    ...........................                 ",
"                   .............................                ",
"                  ...............................               ",
"                ...................................             ",
"               .....................................            ",
"              .ooooo.............................ooo.           ",
"             .ooooooooooooooooooooooooooooooooooooo...          ",
"             ....oooooooooooooooooooooooooooooooo.....          ",
"            ..................O.O.O.O..................         ",
"           .........OOooOOOOOOOOOOOOOOOOOooOOO..........        ",
"          ..........OOooO.OOOOOOOOOOOOO.OooOOO...........       ",
"          ..........OOOO.O.OOOOOOOOOOO.O.OOOOO...........       ",
"         ...........OOOO.O.OOOOOOOOOOO.O.OOOOO............      ",
"         ...........OOO.OOO.OOOOOOOOO.OOO.OOOO............      ",
"         ...........OOO.OOO.OOOOOOOOO.OOO.OOOO............      ",
"        ............OOO.OOO.OOOOOOOOO.OOO.OOOO.............     ",
"        ............OOO.OOO.OOOOOOOOO.OOO.OOOO.............     ",
"        ............OOO.OOO.OOOOOOOOO.OOO.OOOO.............     ",
"       .............OOO.OOO.OOOOOOOOO.OOO.OOOO..............    ",
"       .............OOO.O...OOOOOOOOO.OO..OOOO..............    ",
"       .............OOO.O.O.OOOOOOOOO.O.O.OOOO..............    ",
"       .X...........OOO.....OOOOOOOOO.O...OOOO..............    ",
"       .X...........OOO.....OOOOOOOOO.....OOOO..............    ",
"       .X...........OOO.....OOOOOOOOO.....OOOO..............    ",
"       .X...........OOOO...OOOOOOOOOOO...OOOOO..............    ",
"       .X...........OOOO...OOOOOOOOOOO...OOOOO..............    ",
"       .X...........OOOOO.OOOOOOOOOOOOO.OOOOOO..............    ",
"       .X...........OOOOOOOOOOOOO.OOOOOOOOOOOO..............    ",
"       .XX..........OOOOOOOOOOOO..OOOOOOOOOOOO..............    ",
"        XXX.........OOOOOOOOOOOOOOOOOOOOOOOOOO.............     ",
"        .XX................................................     ",
"        .XX................................................     ",
"         XX...............................................      ",
"         XXX..............................................      ",
"         .XX.........o..o.ooo.o..o....o..oo...............      ",
"          XXX........oo.o..o..oo.o....o.o..o.............       ",
"          .XXX.......o.oo..o..o.oo....o.oooo.............       ",
"           .XX.......o..o..o..o..o.o..o.o..o............        ",
"            XXX......o..o.ooo.o..o..oo..o..o...........         ",
"             XXX......................................          ",
"             .XXX.....................................          ",
"              .XXX...................................           ",
"               .XXX.................................            ",
"                .XXXX..............................             ",
"                  XXXXX..........................               ",
"                   .XXXXX.......................                ",
"                    ..XXXXXXX..................                 ",
"                      ..XXXXXXXXXX...........                   ",
"                         ...XXXXXXXXXX....                      ",
"                            ...........                         ",
"                                                                ",
"                                                                ",
"                                                                ",
"                                                                ",
"                                                                ",
"                                                                ",
"                                                                "
};
