/* XPM */
static char *_584afff2f8640f2ddd3952f515bbebc3BqXF46k0gusA1jI[] = {
/* columns rows colors chars-per-pixel */
"64 64 5 1 ",
"  c #522716",
". c #753D26",
"X c #9C5A3C",
"o c #A1573A",
"O c #B56645",
/* pixels */
"                                                                ",
"                                                                ",
"XXXXXXXXX  XXXXXXXXXXXXXXXXXX  OOOOOOOOOOOOOOO         XXXXXXXXX",
"XXXXXXXXX  XXXXXXXXXXXXXXXXXX  OOOOOOOOOOOOOOO         XXXXXXXXX",
"XXXXXXXXX  XXXXXXXXXXXXXXXXXX  OOOOOOOOOOOOOOO         XXXXXXXXX",
"XXXXXXXXX  XXXXXXXXXXXXXXXXXX  OOOOOOOOOOOOOOO         XXXXXXXXX",
"XXXXXXXXX  XXXXXXXXXXXXXXXXXX  OOOOOOOOOOOOOOO         XXXXXXXXX",
"                                                                ",
"                                                                ",
"XXXXXXXXXXXXXXXX     OOOOOOOOOOOOOOOOOOOOOOOOO  XXXXXXXXXXXXXXXX",
"XXXXXXXXXXXXXXXX     OOOOOOOOOOOOOOOOOOOOOOOOO  XXXXXXXXXXXXXXXX",
"XXXXXXXXXXXXXXXX     OOOOOOOOOOOOOOOOOOOOOOOOO  XXXXXXXXXXXXXXXX",
"XXXXXXXXXXXXXXXX     OOOOOOOOOOOOOOOOOOOOOOOOO  XXXXXXXXXXXXXXXX",
"                                                                ",
"                                                                ",
"XXXXXXXX  OOOOOOOOOOOOOOOOOOOOOOOOO  XXXXXXXXXXXXXXXXXXXXXXXXXXX",
"XXXXXXXX  OOOOOOOOOOOOOOOOOOOOOOOOO  XXXXXXXXXXXXXXXXXXXXXXXXXXX",
"XXXXXXXX  OOOOOOOOOOOOOOOOOOOOOOOOO  XXXXXXXXXXXXXXXXXXXXXXXXXXX",
"                                                                ",
"                                                                ",
"X  XXXXXXXXXX            ooooooooooooooooooooooo  XXXXXXXXXXXXXX",
"X  XXXXXXXXXX            ooooooooooooooooooooooo  XXXXXXXXXXXXXX",
"X  XXXXXXXXXX            ooooooooooooooooooooooo  XXXXXXXXXXXXXX",
"X  XXXXXXXXXX            ooooooooooooooooooooooo  XXXXXXXXXXXXXX",
"                                                                ",
"                                                                ",
"XXXXXXXXXXX  oooooooooooooooooooo  XXXXXXXXXXXXXXXXXXXXXXXX  XXX",
"XXXXXXXXXXX  oooooooooooooooooooo  XXXXXXXXXXXXXXXXXXXXXXXX  XXX",
"XXXXXXXXXXX  oooooooooooooooooooo  XXXXXXXXXXXXXXXXXXXXXXXX  XXX",
"XXXXXXXXXXX  oooooooooooooooooooo  XXXXXXXXXXXXXXXXXXXXXXXX  XXX",
"                                                                ",
"                                                                ",
"XXX  .................  ooooooooooooo          XXXXXXXXXXXXXXXXX",
"XXX  .................  ooooooooooooo          XXXXXXXXXXXXXXXXX",
"XXX  .................  ooooooooooooo          XXXXXXXXXXXXXXXXX",
"XXX  .................  ooooooooooooo          XXXXXXXXXXXXXXXXX",
"                                                                ",
"                                                                ",
"XXXXXXXXXXX  ......................  XXXXXXXXXXX         XXXXXXX",
"XXXXXXXXXXX  ......................  XXXXXXXXXXX         XXXXXXX",
"XXXXXXXXXXX  ......................  XXXXXXXXXXX         XXXXXXX",
"XXXXXXXXXXX  ......................  XXXXXXXXXXX         XXXXXXX",
"                                                                ",
"                                                                ",
"XX  XXXXXXXXXXXXXXXXXXX  XXXXXXXXXXXXXXXXX  ...............  XXX",
"XX  XXXXXXXXXXXXXXXXXXX  XXXXXXXXXXXXXXXXX  ...............  XXX",
"XX  XXXXXXXXXXXXXXXXXXX  XXXXXXXXXXXXXXXXX  ...............  XXX",
"XX  XXXXXXXXXXXXXXXXXXX  XXXXXXXXXXXXXXXXX  ...............  XXX",
"                                                                ",
"                                                                ",
"XXXXXXXXX          XXXXXXXXXX  XXXXXXXXXXXXXXXXXXXXX  XXXXXXXXXX",
"XXXXXXXXX          XXXXXXXXXX  XXXXXXXXXXXXXXXXXXXXX  XXXXXXXXXX",
"XXXXXXXXX          XXXXXXXXXX  XXXXXXXXXXXXXXXXXXXXX  XXXXXXXXXX",
"XXXXXXXXX          XXXXXXXXXX  XXXXXXXXXXXXXXXXXXXXX  XXXXXXXXXX",
"XXXXXXXXX          XXXXXXXXXX  XXXXXXXXXXXXXXXXXXXXX  XXXXXXXXXX",
"                                                                ",
"                                                                ",
"XXXXXXXXXXXXXXX  XXXXXXXXXXXXXXX       ...................  XXXX",
"XXXXXXXXXXXXXXX  XXXXXXXXXXXXXXX       ...................  XXXX",
"XXXXXXXXXXXXXXX  XXXXXXXXXXXXXXX       ...................  XXXX",
"XXXXXXXXXXXXXXX  XXXXXXXXXXXXXXX       ...................  XXXX",
"XXXXXXXXXXXXXXX  XXXXXXXXXXXXXXX       ...................  XXXX",
"                                                                ",
"                                                                "
};
